<svg width="109" height="26" viewBox="0 0 109 26" fill="none" xmlns="http://www.w3.org/2000/svg">
<path d="M9.216 2.28C10.88 2.28 12.32 2.51467 13.536 2.984C14.7733 3.45333 15.8933 4.168 16.896 5.128L14.464 7.976C12.9493 6.73867 11.328 6.12 9.6 6.12C8.68267 6.12 7.95733 6.312 7.424 6.696C6.89067 7.05867 6.624 7.592 6.624 8.296C6.624 8.78667 6.74133 9.192 6.976 9.512C7.21067 9.81067 7.62667 10.0987 8.224 10.376C8.82133 10.6533 9.71733 10.984 10.912 11.368C13.1733 12.0933 14.8373 12.9893 15.904 14.056C16.9707 15.1013 17.504 16.5947 17.504 18.536C17.504 19.9227 17.152 21.1493 16.448 22.216C15.744 23.2613 14.7307 24.0827 13.408 24.68C12.0853 25.256 10.5173 25.544 8.704 25.544C6.89067 25.544 5.28 25.256 3.872 24.68C2.48533 24.104 1.29067 23.336 0.288 22.376L2.944 19.464C3.79733 20.1893 4.672 20.7333 5.568 21.096C6.48533 21.4587 7.47733 21.64 8.544 21.64C9.632 21.64 10.4853 21.4053 11.104 20.936C11.744 20.4453 12.064 19.7733 12.064 18.92C12.064 18.3653 11.9467 17.9067 11.712 17.544C11.4773 17.16 11.072 16.8187 10.496 16.52C9.92 16.2213 9.088 15.9013 8 15.56C5.54667 14.8133 3.79733 13.896 2.752 12.808C1.728 11.72 1.216 10.344 1.216 8.68C1.216 7.4 1.55733 6.28 2.24 5.32C2.92267 4.33867 3.872 3.592 5.088 3.08C6.304 2.54667 7.68 2.28 9.216 2.28ZM33.8005 20.072C33.8005 20.712 33.8858 21.1813 34.0565 21.48C34.2485 21.7787 34.5472 22.0027 34.9525 22.152L33.8965 25.448C32.8512 25.3627 31.9978 25.1387 31.3365 24.776C30.6752 24.392 30.1632 23.7947 29.8005 22.984C28.6912 24.6907 26.9845 25.544 24.6805 25.544C22.9952 25.544 21.6512 25.0533 20.6485 24.072C19.6458 23.0907 19.1445 21.8107 19.1445 20.232C19.1445 18.376 19.8272 16.9573 21.1925 15.976C22.5578 14.9947 24.5312 14.504 27.1125 14.504H28.8405V13.768C28.8405 12.7653 28.6272 12.0827 28.2005 11.72C27.7738 11.336 27.0272 11.144 25.9605 11.144C25.4058 11.144 24.7338 11.2293 23.9445 11.4C23.1552 11.5493 22.3445 11.7627 21.5125 12.04L20.3605 8.712C21.4272 8.30667 22.5152 7.99733 23.6245 7.784C24.7552 7.57067 25.8005 7.464 26.7605 7.464C29.1925 7.464 30.9738 7.96533 32.1045 8.968C33.2352 9.97067 33.8005 11.4747 33.8005 13.48V20.072ZM26.1525 21.928C27.3045 21.928 28.2005 21.384 28.8405 20.296V17.288H27.5925C26.4405 17.288 25.5765 17.4907 25.0005 17.896C24.4458 18.3013 24.1685 18.9307 24.1685 19.784C24.1685 20.4667 24.3392 21 24.6805 21.384C25.0432 21.7467 25.5338 21.928 26.1525 21.928ZM56.6118 7.464C57.9558 7.464 59.0331 7.92267 59.8438 8.84C60.6544 9.736 61.0598 10.984 61.0598 12.584V25H56.0038V13.448C56.0038 11.9333 55.5238 11.176 54.5638 11.176C54.0304 11.176 53.5611 11.3573 53.1558 11.72C52.7504 12.0827 52.3558 12.6373 51.9718 13.384V25H46.9158V13.448C46.9158 11.9333 46.4358 11.176 45.4758 11.176C44.9638 11.176 44.4944 11.368 44.0677 11.752C43.6624 12.1147 43.2678 12.6587 42.8838 13.384V25H37.8278V8.008H42.2438L42.5958 9.992C43.2571 9.13867 43.9824 8.50933 44.7718 8.104C45.5824 7.67733 46.4998 7.464 47.5238 7.464C48.4838 7.464 49.3051 7.69867 49.9878 8.168C50.6918 8.63733 51.2038 9.29867 51.5238 10.152C52.2064 9.23467 52.9531 8.56267 53.7638 8.136C54.5958 7.688 55.5451 7.464 56.6118 7.464ZM79.195 25H74.811L74.587 22.856C73.3497 24.648 71.6323 25.544 69.435 25.544C67.8777 25.544 66.6937 25.0747 65.883 24.136C65.0937 23.1973 64.699 21.8853 64.699 20.2V8.008H69.755V19.56C69.755 20.392 69.883 20.9787 70.139 21.32C70.4163 21.64 70.8323 21.8 71.387 21.8C72.4537 21.8 73.371 21.1387 74.139 19.816V8.008H79.195V25ZM97.9875 16.168C97.9875 16.872 97.9555 17.48 97.8915 17.992H87.3635C87.5342 19.4213 87.9395 20.424 88.5795 21C89.2195 21.576 90.1048 21.864 91.2355 21.864C91.9182 21.864 92.5795 21.7467 93.2195 21.512C93.8595 21.256 94.5528 20.872 95.2995 20.36L97.3795 23.176C95.3955 24.7547 93.1875 25.544 90.7555 25.544C88.0035 25.544 85.8915 24.7333 84.4195 23.112C82.9475 21.4907 82.2115 19.3147 82.2115 16.584C82.2115 14.856 82.5208 13.3093 83.1395 11.944C83.7582 10.5573 84.6648 9.46933 85.8595 8.68C87.0542 7.86933 88.4835 7.464 90.1475 7.464C92.6008 7.464 94.5208 8.232 95.9075 9.768C97.2942 11.304 97.9875 13.4373 97.9875 16.168ZM93.0275 14.728C92.9848 12.1253 92.0675 10.824 90.2755 10.824C89.4008 10.824 88.7182 11.144 88.2275 11.784C87.7582 12.424 87.4702 13.48 87.3635 14.952H93.0275V14.728ZM105.34 25.544C103.868 25.544 102.716 25.128 101.884 24.296C101.073 23.4427 100.668 22.2373 100.668 20.68V1.256L105.724 0.711998V20.488C105.724 21.192 106.012 21.544 106.588 21.544C106.886 21.544 107.164 21.4907 107.42 21.384L108.412 24.968C107.494 25.352 106.47 25.544 105.34 25.544Z" fill="#101010"/>
</svg>
